<?xml version="1.0" standalone="no"?>
<!DOCTYPE svg PUBLIC "-//W3C//DTD SVG 20010904//EN"
 "http://www.w3.org/TR/2001/REC-SVG-20010904/DTD/svg10.dtd">
<svg version="1.0" xmlns="http://www.w3.org/2000/svg"
 width="768.000000pt" height="768.000000pt" viewBox="0 0 768.000000 768.000000"
 preserveAspectRatio="xMidYMid meet">
<metadata>
Created by potrace 1.14, written by Peter Selinger 2001-2017
</metadata>
<g transform="translate(0.000000,768.000000) scale(0.100000,-0.100000)"
fill="#000000" stroke="none">
<path d="M3608 7675 c-1 -1 -46 -6 -98 -10 -52 -3 -97 -8 -100 -10 -3 -1 -32
-5 -65 -9 -33 -3 -100 -13 -150 -21 -49 -9 -101 -17 -115 -20 -59 -9 -383 -97
-475 -129 -217 -74 -529 -214 -653 -293 -29 -18 -54 -33 -57 -33 -8 0 -201
-124 -270 -174 -267 -192 -524 -427 -710 -650 -22 -26 -48 -57 -59 -69 -202
-239 -461 -679 -577 -981 -11 -28 -24 -60 -29 -71 -36 -76 -146 -457 -176
-610 -4 -22 -8 -42 -9 -45 -1 -5 -15 -97 -21 -135 -1 -11 -5 -45 -9 -75 -3
-30 -8 -61 -10 -67 -19 -58 -27 -612 -11 -763 20 -201 45 -359 82 -525 30
-133 110 -401 139 -470 8 -16 30 -73 51 -125 67 -174 149 -334 299 -588 58
-97 228 -329 327 -445 196 -230 478 -489 693 -638 28 -18 52 -37 55 -40 7 -8
182 -118 267 -168 183 -106 448 -228 643 -296 105 -36 376 -113 460 -130 151
-30 365 -61 500 -73 171 -14 709 -5 740 13 3 1 34 6 69 9 203 21 534 99 761
179 780 275 1423 765 1898 1445 40 56 72 106 72 109 0 4 6 14 14 22 24 26 152
255 210 374 117 240 229 554 281 787 2 8 9 38 15 65 6 28 14 61 16 75 3 14 11
61 19 105 7 44 17 107 21 140 3 33 8 69 10 80 25 132 25 713 0 851 -2 10 -7
46 -10 79 -16 140 -56 337 -109 535 -18 68 -84 268 -96 295 -6 11 -26 63 -47
115 -67 172 -149 333 -299 588 -58 97 -228 329 -327 445 -196 230 -478 489
-693 638 -27 18 -52 37 -55 40 -7 8 -182 118 -267 168 -423 245 -915 412
-1403 475 -63 9 -135 18 -160 21 -47 6 -576 16 -582 10z"/>
</g>
</svg>
